<mxfile host="app.diagrams.net" agent="Mozilla/5.0 (Windows NT 10.0; Win64; x64) AppleWebKit/537.36 (KHTML, like Gecko) Chrome/128.0.0.0 Safari/537.36" version="24.7.13">
  <diagram name="Page-1" id="_1lzf94owetyiMSADOLd">
    <mxGraphModel dx="1017" dy="1113" grid="1" gridSize="10" guides="1" tooltips="1" connect="1" arrows="1" fold="1" page="1" pageScale="1" pageWidth="827" pageHeight="1169" math="0" shadow="0">
      <root>
        <mxCell id="0" />
        <mxCell id="1" parent="0" />
        <mxCell id="oM1wKdOQ4Xp8rDiWwcRB-2" value="" style="html=1;verticalAlign=bottom;startArrow=circle;startFill=1;endArrow=open;startSize=6;endSize=8;curved=0;rounded=0;" edge="1" parent="1">
          <mxGeometry width="80" relative="1" as="geometry">
            <mxPoint x="950" y="120" as="sourcePoint" />
            <mxPoint x="950" y="190" as="targetPoint" />
          </mxGeometry>
        </mxCell>
        <mxCell id="oM1wKdOQ4Xp8rDiWwcRB-3" value="Accueil" style="rounded=1;arcSize=10;whiteSpace=wrap;html=1;align=center;" vertex="1" parent="1">
          <mxGeometry x="900" y="190" width="100" height="40" as="geometry" />
        </mxCell>
        <mxCell id="oM1wKdOQ4Xp8rDiWwcRB-4" value="" style="endArrow=classic;html=1;rounded=0;exitX=0;exitY=0.75;exitDx=0;exitDy=0;entryX=0.5;entryY=0;entryDx=0;entryDy=0;" edge="1" parent="1" source="oM1wKdOQ4Xp8rDiWwcRB-3" target="oM1wKdOQ4Xp8rDiWwcRB-7">
          <mxGeometry width="50" height="50" relative="1" as="geometry">
            <mxPoint x="790" y="300" as="sourcePoint" />
            <mxPoint x="750" y="270" as="targetPoint" />
          </mxGeometry>
        </mxCell>
        <mxCell id="oM1wKdOQ4Xp8rDiWwcRB-5" value="" style="endArrow=classic;html=1;rounded=0;exitX=1;exitY=0.75;exitDx=0;exitDy=0;" edge="1" parent="1" source="oM1wKdOQ4Xp8rDiWwcRB-3">
          <mxGeometry width="50" height="50" relative="1" as="geometry">
            <mxPoint x="1110" y="270" as="sourcePoint" />
            <mxPoint x="1130" y="280" as="targetPoint" />
          </mxGeometry>
        </mxCell>
        <mxCell id="oM1wKdOQ4Xp8rDiWwcRB-6" value="" style="endArrow=classic;html=1;rounded=0;exitX=0.5;exitY=1;exitDx=0;exitDy=0;" edge="1" parent="1" source="oM1wKdOQ4Xp8rDiWwcRB-3">
          <mxGeometry width="50" height="50" relative="1" as="geometry">
            <mxPoint x="880" y="440" as="sourcePoint" />
            <mxPoint x="950" y="290" as="targetPoint" />
          </mxGeometry>
        </mxCell>
        <mxCell id="oM1wKdOQ4Xp8rDiWwcRB-7" value="Se connecter" style="rounded=1;arcSize=10;whiteSpace=wrap;html=1;align=center;" vertex="1" parent="1">
          <mxGeometry x="700" y="280" width="100" height="40" as="geometry" />
        </mxCell>
        <mxCell id="oM1wKdOQ4Xp8rDiWwcRB-8" value="Créer un compte" style="rounded=1;arcSize=10;whiteSpace=wrap;html=1;align=center;" vertex="1" parent="1">
          <mxGeometry x="900" y="290" width="100" height="40" as="geometry" />
        </mxCell>
        <mxCell id="oM1wKdOQ4Xp8rDiWwcRB-9" value="Quitter" style="rounded=1;arcSize=10;whiteSpace=wrap;html=1;align=center;" vertex="1" parent="1">
          <mxGeometry x="1090" y="280" width="100" height="40" as="geometry" />
        </mxCell>
        <mxCell id="oM1wKdOQ4Xp8rDiWwcRB-10" value="" style="html=1;verticalAlign=bottom;endArrow=block;curved=0;rounded=0;exitX=0.5;exitY=1;exitDx=0;exitDy=0;" edge="1" parent="1" source="oM1wKdOQ4Xp8rDiWwcRB-9">
          <mxGeometry width="80" relative="1" as="geometry">
            <mxPoint x="870" y="410" as="sourcePoint" />
            <mxPoint x="1140" y="480" as="targetPoint" />
          </mxGeometry>
        </mxCell>
        <mxCell id="oM1wKdOQ4Xp8rDiWwcRB-11" value="" style="ellipse;html=1;shape=endState;fillColor=#000000;strokeColor=#ff0000;" vertex="1" parent="1">
          <mxGeometry x="1130" y="480" width="20" height="20" as="geometry" />
        </mxCell>
        <mxCell id="oM1wKdOQ4Xp8rDiWwcRB-12" value="" style="html=1;verticalAlign=bottom;endArrow=block;curved=0;rounded=0;exitX=0.25;exitY=1;exitDx=0;exitDy=0;entryX=0.5;entryY=0;entryDx=0;entryDy=0;" edge="1" parent="1" source="oM1wKdOQ4Xp8rDiWwcRB-7">
          <mxGeometry width="80" relative="1" as="geometry">
            <mxPoint x="870" y="410" as="sourcePoint" />
            <mxPoint x="435" y="400" as="targetPoint" />
          </mxGeometry>
        </mxCell>
        <mxCell id="oM1wKdOQ4Xp8rDiWwcRB-16" value="Menu Joueur" style="swimlane;childLayout=stackLayout;horizontal=1;startSize=20;horizontalStack=0;rounded=1;fontSize=14;fontStyle=0;strokeWidth=2;resizeParent=0;resizeLast=1;shadow=0;dashed=0;align=center;arcSize=4;whiteSpace=wrap;html=1;movable=0;resizable=0;rotatable=0;deletable=0;editable=0;locked=1;connectable=0;" vertex="1" parent="1">
          <mxGeometry x="120" y="400" width="480" height="230" as="geometry" />
        </mxCell>
        <mxCell id="oM1wKdOQ4Xp8rDiWwcRB-13" value="" style="html=1;verticalAlign=bottom;endArrow=block;curved=0;rounded=0;exitX=0.75;exitY=1;exitDx=0;exitDy=0;" edge="1" parent="1" source="oM1wKdOQ4Xp8rDiWwcRB-7">
          <mxGeometry width="80" relative="1" as="geometry">
            <mxPoint x="820" y="410" as="sourcePoint" />
            <mxPoint x="830" y="400" as="targetPoint" />
            <Array as="points">
              <mxPoint x="830" y="360" />
            </Array>
          </mxGeometry>
        </mxCell>
        <mxCell id="oM1wKdOQ4Xp8rDiWwcRB-18" value="Menu Organisateur" style="swimlane;childLayout=stackLayout;horizontal=1;startSize=20;horizontalStack=0;rounded=1;fontSize=14;fontStyle=0;strokeWidth=2;resizeParent=0;resizeLast=1;shadow=0;dashed=0;align=center;arcSize=4;whiteSpace=wrap;html=1;movable=0;resizable=0;rotatable=0;deletable=0;editable=0;locked=1;connectable=0;" vertex="1" parent="1">
          <mxGeometry x="620" y="400" width="420" height="230" as="geometry" />
        </mxCell>
        <mxCell id="oM1wKdOQ4Xp8rDiWwcRB-27" value="" style="html=1;verticalAlign=bottom;startArrow=oval;startFill=1;endArrow=block;startSize=8;curved=0;rounded=0;" edge="1" parent="1">
          <mxGeometry width="60" relative="1" as="geometry">
            <mxPoint x="370" y="450" as="sourcePoint" />
            <mxPoint x="240" y="470" as="targetPoint" />
            <Array as="points">
              <mxPoint x="270" y="450" />
            </Array>
          </mxGeometry>
        </mxCell>
        <mxCell id="oM1wKdOQ4Xp8rDiWwcRB-28" value="" style="html=1;verticalAlign=bottom;endArrow=block;curved=0;rounded=0;" edge="1" parent="1">
          <mxGeometry width="80" relative="1" as="geometry">
            <mxPoint x="370" y="450" as="sourcePoint" />
            <mxPoint x="370" y="480" as="targetPoint" />
          </mxGeometry>
        </mxCell>
        <mxCell id="oM1wKdOQ4Xp8rDiWwcRB-29" value="" style="html=1;verticalAlign=bottom;endArrow=block;curved=0;rounded=0;" edge="1" parent="1">
          <mxGeometry width="80" relative="1" as="geometry">
            <mxPoint x="370" y="450" as="sourcePoint" />
            <mxPoint x="480" y="470" as="targetPoint" />
            <Array as="points">
              <mxPoint x="460" y="450" />
            </Array>
          </mxGeometry>
        </mxCell>
        <mxCell id="oM1wKdOQ4Xp8rDiWwcRB-31" value="Observer les sats des joueurs" style="rounded=1;whiteSpace=wrap;html=1;" vertex="1" parent="1">
          <mxGeometry x="180" y="470" width="110" height="50" as="geometry" />
        </mxCell>
        <mxCell id="oM1wKdOQ4Xp8rDiWwcRB-32" value="Se déconnecter" style="rounded=1;whiteSpace=wrap;html=1;" vertex="1" parent="1">
          <mxGeometry x="450" y="470" width="110" height="50" as="geometry" />
        </mxCell>
        <mxCell id="oM1wKdOQ4Xp8rDiWwcRB-33" value="Résultats des matchs" style="rounded=1;whiteSpace=wrap;html=1;" vertex="1" parent="1">
          <mxGeometry x="320" y="480" width="110" height="50" as="geometry" />
        </mxCell>
        <mxCell id="oM1wKdOQ4Xp8rDiWwcRB-34" value="Retour à l&#39;accueil" style="html=1;verticalAlign=bottom;endArrow=block;curved=0;rounded=0;exitX=0.5;exitY=1;exitDx=0;exitDy=0;" edge="1" parent="1" source="oM1wKdOQ4Xp8rDiWwcRB-32">
          <mxGeometry width="80" relative="1" as="geometry">
            <mxPoint x="480" y="560" as="sourcePoint" />
            <mxPoint x="505" y="590" as="targetPoint" />
          </mxGeometry>
        </mxCell>
        <mxCell id="oM1wKdOQ4Xp8rDiWwcRB-36" value="" style="ellipse;html=1;shape=endState;fillColor=#000000;strokeColor=#ff0000;" vertex="1" parent="1">
          <mxGeometry x="495" y="585" width="20" height="20" as="geometry" />
        </mxCell>
        <mxCell id="oM1wKdOQ4Xp8rDiWwcRB-37" value="" style="html=1;verticalAlign=bottom;startArrow=oval;startFill=1;endArrow=block;startSize=8;curved=0;rounded=0;" edge="1" parent="1">
          <mxGeometry width="60" relative="1" as="geometry">
            <mxPoint x="830" y="440" as="sourcePoint" />
            <mxPoint x="700" y="460" as="targetPoint" />
            <Array as="points">
              <mxPoint x="730" y="440" />
            </Array>
          </mxGeometry>
        </mxCell>
        <mxCell id="oM1wKdOQ4Xp8rDiWwcRB-38" value="" style="html=1;verticalAlign=bottom;endArrow=block;curved=0;rounded=0;" edge="1" parent="1">
          <mxGeometry width="80" relative="1" as="geometry">
            <mxPoint x="830" y="440" as="sourcePoint" />
            <mxPoint x="830" y="470" as="targetPoint" />
          </mxGeometry>
        </mxCell>
        <mxCell id="oM1wKdOQ4Xp8rDiWwcRB-39" value="" style="html=1;verticalAlign=bottom;endArrow=block;curved=0;rounded=0;" edge="1" parent="1">
          <mxGeometry width="80" relative="1" as="geometry">
            <mxPoint x="830" y="440" as="sourcePoint" />
            <mxPoint x="940" y="460" as="targetPoint" />
            <Array as="points">
              <mxPoint x="920" y="440" />
            </Array>
          </mxGeometry>
        </mxCell>
        <mxCell id="oM1wKdOQ4Xp8rDiWwcRB-40" value="Création de tournois" style="rounded=1;whiteSpace=wrap;html=1;" vertex="1" parent="1">
          <mxGeometry x="640" y="460" width="110" height="50" as="geometry" />
        </mxCell>
        <mxCell id="oM1wKdOQ4Xp8rDiWwcRB-41" value="Se déconnecter" style="rounded=1;whiteSpace=wrap;html=1;" vertex="1" parent="1">
          <mxGeometry x="910" y="460" width="110" height="50" as="geometry" />
        </mxCell>
        <mxCell id="oM1wKdOQ4Xp8rDiWwcRB-42" value="?" style="rounded=1;whiteSpace=wrap;html=1;" vertex="1" parent="1">
          <mxGeometry x="780" y="470" width="110" height="50" as="geometry" />
        </mxCell>
        <mxCell id="oM1wKdOQ4Xp8rDiWwcRB-43" value="Retour à l&#39;accueil" style="html=1;verticalAlign=bottom;endArrow=block;curved=0;rounded=0;exitX=0.5;exitY=1;exitDx=0;exitDy=0;" edge="1" parent="1" source="oM1wKdOQ4Xp8rDiWwcRB-41">
          <mxGeometry width="80" relative="1" as="geometry">
            <mxPoint x="940" y="550" as="sourcePoint" />
            <mxPoint x="965" y="580" as="targetPoint" />
          </mxGeometry>
        </mxCell>
        <mxCell id="oM1wKdOQ4Xp8rDiWwcRB-44" value="" style="ellipse;html=1;shape=endState;fillColor=#000000;strokeColor=#ff0000;" vertex="1" parent="1">
          <mxGeometry x="955" y="575" width="20" height="20" as="geometry" />
        </mxCell>
      </root>
    </mxGraphModel>
  </diagram>
</mxfile>
